<svg xmlns="http://www.w3.org/2000/svg" xmlns:xlink="http://www.w3.org/1999/xlink" version="1.1" width="1000" height="1000" viewBox="0 0 1000 1000" xml:space="preserve">
<desc>Created with Fabric.js 3.5.0</desc>
<defs>
</defs>
<rect x="0" y="0" width="100%" height="100%" fill="#000000"/>
<g transform="matrix(22.7253 0 0 22.7253 499.4996 499.4994)" id="381023">
<path style="stroke: none; stroke-width: 0; stroke-dasharray: none; stroke-linecap: butt; stroke-dashoffset: 0; stroke-linejoin: miter; stroke-miterlimit: 4; is-custom-font: none; font-file-url: none; fill: rgb(236,109,105); fill-rule: evenodd; opacity: 1;" vector-effect="non-scaling-stroke" transform=" translate(-16.5627, -19.9998)" d="M 32.908 30.475 L 19.151 1.26 a 2.208 2.208 0 0 0 -1.88 -1.257 a 2.183 2.183 0 0 0 -2.01 1.042 L 0.34 25.212 a 2.26 2.26 0 0 0 0.025 2.426 L 7.66 38.935 a 2.346 2.346 0 0 0 2.635 0.969 l 21.17 -6.262 a 2.32 2.32 0 0 0 1.457 -1.258 a 2.27 2.27 0 0 0 -0.013 -1.91 z m -3.08 1.253 L 11.864 37.04 c -0.548 0.163 -1.074 -0.312 -0.96 -0.865 l 6.418 -30.731 c 0.12 -0.575 0.914 -0.666 1.165 -0.134 l 11.881 25.23 a 0.858 0.858 0 0 1 -0.541 1.188 z" stroke-linecap="round"/>
</g>
</svg>